<svg xmlns="http://www.w3.org/2000/svg" width="1024" height="1024" viewBox="0 0 1024 1024">
  <defs>
    <style>
      .stroke { fill: none; stroke: #222; stroke-width: 24; stroke-linecap: round; stroke-linejoin: round; }
      .sulci { fill: none; stroke: #7a3145; stroke-opacity: .65; stroke-width: 18; stroke-linecap: round; }
    </style>
  </defs>
  <circle cx="512" cy="520" r="400" fill="#000" opacity="0.04"></circle>
  <path d="M 360 620 C 300 600, 270 540, 280 480 C 286 430, 320 390, 370 370
           C 350 300, 420 320, 460 320 C 470 300, 500 286, 512 286
           C 524 286, 554 300, 564 320 C 610 320, 678 306, 668 370
           C 708 380, 742 416, 748 468 C 756 536, 720 596, 662 620
           C 640 658, 600 692, 548 696 C 520 736, 476 736, 448 696
           C 396 692, 368 660, 360 620 Z" fill="#ffb3c7" stroke="#222" stroke-width="24"></path>
  <rect x="482" y="690" width="60" height="70" rx="20" fill="#ffc2cf" stroke="#222" stroke-width="20"></rect>
  <path d="M 512 318 C 500 330, 498 350, 506 368 C 514 388, 514 408, 506 426
           C 498 446, 498 468, 508 486 C 520 508, 518 532, 506 552
           C 494 574, 500 600, 514 620" class="sulci"></path>
  <path d="M 360 460 C 400 440, 440 448, 468 472" class="sulci"></path>
  <path d="M 340 512 C 396 498, 436 512, 460 538" class="sulci"></path>
  <path d="M 660 460 C 620 440, 580 448, 552 472" class="sulci"></path>
  <path d="M 684 512 C 628 498, 588 512, 564 538" class="sulci"></path>
  <path d="M 396 388 C 440 388, 470 404, 488 422" class="sulci"></path>
  <path d="M 628 388 C 584 388, 554 404, 536 422" class="sulci"></path>
  <rect x="300" y="770" width="424" height="50" rx="25" fill="#22c55e" stroke="#1f2937" stroke-width="20"></rect>
  <rect x="256" y="740" width="70" height="110" rx="14" fill="#86efac" stroke="#1f2937" stroke-width="20"></rect>
  <rect x="698" y="740" width="70" height="110" rx="14" fill="#86efac" stroke="#1f2937" stroke-width="20"></rect>
  <circle cx="594" cy="350" r="10" fill="#fff" opacity=".7"></circle>
  <circle cx="574" cy="340" r="6" fill="#fff" opacity=".6"></circle>
</svg>
